# Blender v3.3.1 OBJ File: 'Frog.blend'
# www.blender.org
mtllib Frog_LOD3.mtl
o Mesh_Frog_LOD3
v 0.144239 0.340754 0.091615
v 0.126125 0.228933 -0.160093
v 0.126125 0.070794 -0.073929
v 0.149550 0.259593 0.193005
v 0.146582 0.104522 -0.154215
v 0.103448 0.372733 0.259265
v 0.064674 0.287437 0.321955
v 0.098099 0.337805 0.308323
v 0.115185 0.418634 0.122869
v 0.059344 0.428831 0.122804
v 0.092895 0.419474 0.236670
v 0.051802 0.427210 0.240716
v 0.198261 0.248891 -0.124309
v 0.198261 0.249912 -0.055761
v 0.228174 0.152173 0.028025
v 0.139939 0.248891 -0.124309
v 0.139939 0.249912 -0.055761
v 0.141117 0.146862 -0.202592
v 0.141753 0.152173 0.028025
v 0.207955 0.050313 0.145326
v 0.167257 0.050313 0.145326
v 0.167216 0.006279 0.144115
v 0.207996 0.006279 0.144115
v 0.228026 0.037357 -0.140470
v 0.218108 0.005368 -0.036979
v 0.147186 0.037357 -0.140470
v 0.157104 0.005368 -0.036979
v 0.150722 0.054435 -0.030564
v 0.224490 0.054435 -0.030564
v 0.228810 0.146862 -0.202593
v 0.160298 0.005862 -0.101434
v 0.214914 0.005862 -0.101434
v 0.111321 0.222398 0.239552
v 0.130492 0.361962 0.187462
v 0.050359 0.448094 0.185622
v 0.098872 0.437395 0.189726
v 0.087186 0.003862 0.232582
v 0.141245 0.003814 0.232587
v 0.114467 0.003558 0.203769
v 0.113964 0.004118 0.261400
v 0.086865 0.212988 0.075396
v 0.044660 0.214630 0.116380
v 0.085996 0.217460 0.157236
v 0.128201 0.215819 0.116252
v 0.114217 0.001593 0.233986
v 0.144196 0.290823 -0.054277
v 0.143433 0.108650 0.075113
v 0.180225 0.185469 -0.012852
v 0.042930 0.362604 0.322687
v 0.030547 0.367872 0.323135
v 0.025606 0.356959 0.333290
v 0.037854 0.351395 0.332786
v 0.042848 0.353984 0.309403
v 0.027799 0.360426 0.310162
v 0.021851 0.347314 0.322431
v 0.036777 0.340603 0.321638
v -0.144239 0.340754 0.091615
v 0.000000 0.385462 0.075135
v -0.126125 0.228933 -0.160093
v -0.126125 0.070794 -0.073929
v 0.000000 0.242839 -0.204650
v 0.000000 0.028726 -0.115385
v -0.149550 0.259593 0.193005
v -0.146582 0.104522 -0.154215
v 0.000000 0.070024 -0.239547
v -0.103448 0.372733 0.259265
v -0.064674 0.287437 0.321955
v 0.000000 0.379106 0.268065
v 0.000000 0.288111 0.341503
v -0.098099 0.337805 0.308323
v 0.000000 0.358549 0.335855
v -0.115185 0.418634 0.122869
v -0.059344 0.428831 0.122804
v -0.092895 0.419474 0.236670
v -0.051802 0.427210 0.240716
v -0.198261 0.248891 -0.124309
v -0.198261 0.249912 -0.055761
v -0.228174 0.152173 0.028025
v -0.139939 0.248891 -0.124309
v -0.139939 0.249912 -0.055761
v -0.141117 0.146862 -0.202592
v -0.141753 0.152173 0.028025
v -0.207955 0.050313 0.145326
v -0.167257 0.050313 0.145326
v -0.167216 0.006279 0.144115
v -0.207996 0.006279 0.144115
v -0.228026 0.037357 -0.140470
v -0.218108 0.005368 -0.036979
v -0.147186 0.037357 -0.140470
v -0.157104 0.005368 -0.036979
v -0.150722 0.054435 -0.030564
v -0.224490 0.054435 -0.030564
v -0.228810 0.146862 -0.202593
v -0.160298 0.005862 -0.101434
v -0.214914 0.005862 -0.101434
v 0.000000 0.204064 0.260159
v -0.111321 0.222398 0.239552
v -0.130492 0.361962 0.187462
v -0.050359 0.448094 0.185622
v -0.098872 0.437395 0.189726
v 0.000000 0.386121 0.175021
v -0.087186 0.003862 0.232582
v -0.141245 0.003814 0.232587
v -0.114467 0.003558 0.203769
v -0.113964 0.004118 0.261400
v -0.086865 0.212988 0.075396
v -0.044660 0.214630 0.116380
v -0.085996 0.217460 0.157236
v -0.128201 0.215819 0.116252
v -0.114217 0.001593 0.233986
v -0.144196 0.290823 -0.054277
v 0.000000 0.329728 -0.080396
v 0.000000 0.066043 0.081254
v -0.143433 0.108650 0.075113
v -0.180225 0.185469 -0.012852
v -0.042930 0.362604 0.322687
v -0.030547 0.367872 0.323135
v -0.025606 0.356959 0.333290
v -0.037854 0.351395 0.332786
v -0.042848 0.353984 0.309403
v -0.027799 0.360426 0.310162
v -0.021851 0.347314 0.322431
v -0.036777 0.340603 0.321638
v 0.147261 0.348190 0.151032
v 0.129081 0.387167 0.191329
v 0.131482 0.345384 0.232826
v 0.149662 0.306408 0.192529
v 0.140256 0.347009 0.192078
v 0.137674 0.376326 0.162593
v 0.126519 0.374342 0.220417
v 0.141069 0.317249 0.221265
v 0.152224 0.319233 0.163441
v 0.143680 0.347619 0.174325
v 0.131150 0.344044 0.125997
v 0.103670 0.402660 0.187340
v 0.107435 0.339202 0.249703
v 0.134894 0.280542 0.188540
v 0.146291 0.348043 0.141607
v 0.124196 0.395232 0.190838
v 0.127212 0.344148 0.241135
v 0.149317 0.296983 0.191804
v 0.116494 0.390386 0.139404
v 0.098072 0.387109 0.234895
v 0.122099 0.292825 0.236296
v 0.140521 0.296102 0.140804
v 0.134482 0.385559 0.152187
v 0.119582 0.382910 0.229422
v 0.139016 0.306651 0.230555
v 0.153916 0.309301 0.153320
v 0.146946 0.332421 0.177226
v 0.144723 0.329481 0.192338
v 0.141133 0.331388 0.207359
v 0.136831 0.346400 0.209831
v 0.133442 0.361567 0.206911
v 0.135789 0.364538 0.191818
v 0.139255 0.362601 0.176778
v 0.136759 0.346098 0.191321
v 0.120367 0.305386 0.195837
v 0.104472 0.368404 0.196208
v 0.123100 0.306203 0.178419
v 0.107208 0.369181 0.178828
v 0.126731 0.307006 0.196906
v 0.110831 0.369982 0.197273
v 0.129465 0.307803 0.179492
v 0.113559 0.370778 0.179899
v 0.117292 0.316472 0.196372
v 0.106945 0.357533 0.196597
v 0.109828 0.358373 0.178241
v 0.120184 0.317317 0.177956
v 0.116538 0.360059 0.179372
v 0.126916 0.319009 0.179091
v 0.113655 0.359218 0.197727
v 0.124024 0.318166 0.197506
v -0.147261 0.348190 0.151032
v -0.129081 0.387167 0.191329
v -0.131482 0.345384 0.232826
v -0.149662 0.306408 0.192529
v -0.140256 0.347009 0.192078
v -0.137674 0.376326 0.162593
v -0.126519 0.374342 0.220417
v -0.141069 0.317249 0.221265
v -0.152224 0.319233 0.163441
v -0.143680 0.347619 0.174325
v -0.131150 0.344044 0.125997
v -0.103670 0.402660 0.187340
v -0.107435 0.339202 0.249703
v -0.134894 0.280542 0.188540
v -0.146291 0.348043 0.141607
v -0.124196 0.395232 0.190838
v -0.127212 0.344148 0.241135
v -0.149317 0.296983 0.191804
v -0.116494 0.390386 0.139404
v -0.098072 0.387109 0.234895
v -0.122099 0.292825 0.236296
v -0.140521 0.296102 0.140804
v -0.134482 0.385559 0.152187
v -0.119582 0.382910 0.229422
v -0.139016 0.306651 0.230555
v -0.153916 0.309301 0.153320
v -0.146946 0.332421 0.177226
v -0.144723 0.329481 0.192338
v -0.141133 0.331388 0.207359
v -0.136831 0.346400 0.209831
v -0.133442 0.361567 0.206911
v -0.135789 0.364538 0.191818
v -0.139255 0.362601 0.176778
v -0.136759 0.346098 0.191321
v -0.120367 0.305386 0.195837
v -0.104472 0.368404 0.196208
v -0.123100 0.306203 0.178419
v -0.107208 0.369181 0.178828
v -0.126731 0.307006 0.196906
v -0.110831 0.369982 0.197273
v -0.129465 0.307803 0.179492
v -0.113559 0.370778 0.179899
v -0.117292 0.316472 0.196372
v -0.106945 0.357533 0.196597
v -0.109828 0.358373 0.178241
v -0.120184 0.317317 0.177956
v -0.116538 0.360059 0.179372
v -0.126916 0.319009 0.179091
v -0.113655 0.359218 0.197727
v -0.124024 0.318166 0.197506
vt 0.061520 0.754755
vt 0.061520 0.754755
vt 0.061520 0.754755
vt 0.061520 0.754755
vt 0.061520 0.754755
vt 0.061520 0.754755
vt 0.061520 0.754755
vt 0.061520 0.754755
vt 0.061520 0.754755
vt 0.061520 0.754755
vt 0.061520 0.754755
vt 0.061520 0.754755
vt 0.061520 0.754755
vt 0.061520 0.754755
vt 0.061520 0.754755
vt 0.061520 0.754755
vt 0.061520 0.754755
vt 0.061520 0.754755
vt 0.061520 0.754755
vt 0.061520 0.754755
vt 0.061520 0.754755
vt 0.061520 0.754755
vt 0.061520 0.754755
vt 0.061520 0.754755
vt 0.061520 0.754755
vt 0.061520 0.754755
vt 0.061520 0.754755
vt 0.061520 0.754755
vt 0.061520 0.754755
vt 0.310059 0.754755
vt 0.310059 0.754755
vt 0.310059 0.754755
vt 0.310059 0.754755
vt 0.310059 0.754755
vt 0.310059 0.754755
vt 0.310059 0.754755
vt 0.310059 0.754755
vt 0.310059 0.754755
vt 0.310059 0.754755
vt 0.310059 0.754755
vt 0.310059 0.754755
vt 0.310059 0.754755
vt 0.310059 0.754755
vt 0.310059 0.754755
vt 0.310059 0.754755
vt 0.310059 0.754755
vt 0.310059 0.754755
vt 0.310059 0.754755
vt 0.061520 0.754755
vt 0.310059 0.754755
vt 0.310059 0.754755
vt 0.310059 0.754755
vt 0.310059 0.754755
vt 0.310059 0.754755
vt 0.310059 0.754755
vt 0.310059 0.754755
vt 0.310059 0.754755
vt 0.310059 0.754755
vt 0.310059 0.754755
vt 0.685189 0.754755
vt 0.685189 0.754755
vt 0.685189 0.754755
vt 0.685189 0.754755
vt 0.685189 0.754755
vt 0.685189 0.754755
vt 0.685189 0.754755
vt 0.685189 0.754755
vt 0.061520 0.754755
vt 0.061520 0.754755
vt 0.061520 0.754755
vt 0.061520 0.754755
vt 0.061520 0.754755
vt 0.061520 0.754755
vt 0.061520 0.754755
vt 0.061520 0.754755
vt 0.061520 0.754755
vt 0.061520 0.754755
vt 0.061520 0.754755
vt 0.061520 0.754755
vt 0.061520 0.754755
vt 0.061520 0.754755
vt 0.061520 0.754755
vt 0.061520 0.754755
vt 0.061520 0.754755
vt 0.061520 0.754755
vt 0.061520 0.754755
vt 0.310059 0.754755
vt 0.310059 0.754755
vt 0.310059 0.754755
vt 0.310059 0.754755
vt 0.310059 0.754755
vt 0.310059 0.754755
vt 0.310059 0.754755
vt 0.310059 0.754755
vt 0.310059 0.754755
vt 0.310059 0.754755
vt 0.310059 0.754755
vt 0.310059 0.754755
vt 0.310059 0.754755
vt 0.310059 0.754755
vt 0.310059 0.754755
vt 0.310059 0.754755
vt 0.310059 0.754755
vt 0.310059 0.754755
vt 0.310059 0.754755
vt 0.310059 0.754755
vt 0.310059 0.754755
vt 0.310059 0.754755
vt 0.310059 0.754755
vt 0.310059 0.754755
vt 0.310059 0.754755
vt 0.310059 0.754755
vt 0.310059 0.754755
vt 0.310059 0.754755
vt 0.310059 0.754755
vt 0.685189 0.754755
vt 0.685189 0.754755
vt 0.685189 0.754755
vt 0.685189 0.754755
vt 0.685189 0.754755
vt 0.685189 0.754755
vt 0.685189 0.754755
vt 0.685189 0.754755
vt 0.938584 0.778907
vt 0.938584 0.778907
vt 0.938584 0.778907
vt 0.808383 0.751140
vt 0.808383 0.751140
vt 0.808383 0.751140
vt 0.808383 0.751140
vt 0.808383 0.751140
vt 0.808383 0.751140
vt 0.808383 0.751140
vt 0.808383 0.751140
vt 0.808383 0.751140
vt 0.808383 0.751140
vt 0.808383 0.751140
vt 0.808383 0.751140
vt 0.808383 0.751140
vt 0.808383 0.751140
vt 0.808383 0.751140
vt 0.808383 0.751140
vt 0.808383 0.751140
vt 0.938584 0.778907
vt 0.938585 0.778907
vt 0.938584 0.778907
vt 0.938584 0.778907
vt 0.938584 0.778907
vt 0.938585 0.778907
vt 0.938584 0.778907
vt 0.938584 0.778907
vt 0.938584 0.778907
vt 0.938584 0.778907
vt 0.938584 0.778907
vt 0.938584 0.778907
vt 0.938584 0.778907
vt 0.938584 0.778907
vt 0.937155 0.239567
vt 0.937155 0.239567
vt 0.937155 0.239567
vt 0.937155 0.239567
vt 0.937155 0.239567
vt 0.937155 0.239567
vt 0.937155 0.239567
vt 0.937155 0.239567
vt 0.937155 0.239567
vt 0.937155 0.239567
vt 0.937155 0.239567
vt 0.937155 0.239567
vt 0.937155 0.239567
vt 0.937155 0.239567
vt 0.937155 0.239567
vt 0.937155 0.239567
vt 0.938584 0.778907
vt 0.938584 0.778907
vt 0.938584 0.778907
vt 0.808383 0.751140
vt 0.808383 0.751140
vt 0.808383 0.751140
vt 0.808383 0.751140
vt 0.808383 0.751140
vt 0.808383 0.751140
vt 0.808383 0.751140
vt 0.808383 0.751140
vt 0.808383 0.751140
vt 0.808383 0.751140
vt 0.808383 0.751140
vt 0.808383 0.751140
vt 0.808383 0.751140
vt 0.808383 0.751140
vt 0.808383 0.751140
vt 0.808383 0.751140
vt 0.808383 0.751140
vt 0.938584 0.778907
vt 0.938585 0.778907
vt 0.938584 0.778907
vt 0.938584 0.778907
vt 0.938584 0.778907
vt 0.938585 0.778907
vt 0.938584 0.778907
vt 0.938584 0.778907
vt 0.938584 0.778907
vt 0.938584 0.778907
vt 0.938584 0.778907
vt 0.938584 0.778907
vt 0.938584 0.778907
vt 0.938584 0.778907
vt 0.937155 0.239567
vt 0.937155 0.239567
vt 0.937155 0.239567
vt 0.937155 0.239567
vt 0.937155 0.239567
vt 0.937155 0.239567
vt 0.937155 0.239567
vt 0.937155 0.239567
vt 0.937155 0.239567
vt 0.937155 0.239567
vt 0.937155 0.239567
vt 0.937155 0.239567
vt 0.937155 0.239567
vt 0.937155 0.239567
vt 0.937155 0.239567
vt 0.937155 0.239567
vn 0.9426 0.2781 0.1850
vn 0.8259 0.5233 -0.2099
vn 0.6157 0.6728 -0.4102
vn 0.5859 0.8014 0.1203
vn 0.7689 -0.3678 -0.5230
vn 0.6039 -0.7970 -0.0039
vn 0.0000 -0.9951 -0.0992
vn 0.0000 -0.5067 -0.8621
vn 0.7241 0.6087 -0.3242
vn 0.6384 0.4137 -0.6491
vn 0.0000 0.5112 -0.8595
vn -0.0000 0.8920 -0.4520
vn 0.0000 -0.9151 0.4033
vn 0.6588 -0.6729 0.3363
vn 0.9967 -0.0779 -0.0237
vn 0.9588 -0.0414 0.2809
vn 0.6571 0.3338 0.6759
vn 0.4438 -0.3256 0.8349
vn 0.6057 -0.5312 0.5925
vn -0.0000 0.5653 0.8249
vn -0.0000 -0.3204 0.9473
vn 0.0000 0.8490 0.5283
vn 0.6910 0.5050 0.5172
vn 0.0000 -0.7511 0.6602
vn -0.2755 0.9606 0.0368
vn -0.2008 0.7884 0.5815
vn 0.5190 0.6281 0.5797
vn 0.0000 0.8769 -0.4806
vn -0.1202 0.8588 -0.4980
vn -0.7930 -0.5809 0.1834
vn 0.0534 -0.7576 -0.6506
vn -0.0008 -0.9999 0.0160
vn 0.8525 -0.4922 0.1760
vn 0.0311 -0.3639 0.9309
vn -0.0202 -0.5274 -0.8494
vn 0.9807 -0.0401 -0.1914
vn 0.5626 0.5435 0.6230
vn 0.9552 0.0349 0.2940
vn -0.9531 0.0093 0.3026
vn -0.5626 0.5435 0.6230
vn -0.6022 0.0567 0.7964
vn -0.6284 0.7077 0.3230
vn -0.6264 0.6958 -0.3515
vn -0.6096 0.0370 -0.7919
vn 0.5077 0.8018 0.3153
vn 0.5060 0.7889 -0.3487
vn 0.6205 0.1071 0.7769
vn -0.6688 -0.5224 -0.5289
vn 0.0000 1.0000 -0.0062
vn -0.5303 -0.8104 -0.2492
vn 0.5303 -0.8104 -0.2492
vn 0.6587 -0.7518 0.0303
vn -0.6587 -0.7518 0.0303
vn 0.6820 -0.5027 -0.5312
vn 0.6267 0.0911 -0.7739
vn -0.5433 -0.6092 0.5777
vn 0.5433 -0.6092 0.5777
vn -0.0697 0.4265 0.9018
vn -0.9494 -0.2727 -0.1557
vn -0.3562 0.8419 -0.4054
vn -0.2251 0.9647 0.1369
vn 0.8074 0.5670 0.1631
vn 0.9110 0.3428 -0.2294
vn -0.5499 0.1905 0.8132
vn -0.8380 -0.2346 0.4927
vn 0.4633 -0.2351 0.8544
vn 0.5278 -0.6334 0.5659
vn -0.9426 0.2781 0.1850
vn -0.5859 0.8014 0.1203
vn -0.6157 0.6728 -0.4102
vn -0.8259 0.5233 -0.2099
vn -0.7689 -0.3678 -0.5230
vn -0.6039 -0.7970 -0.0039
vn -0.7241 0.6087 -0.3242
vn -0.6384 0.4137 -0.6491
vn -0.6588 -0.6729 0.3363
vn -0.9967 -0.0779 -0.0237
vn -0.9588 -0.0414 0.2809
vn -0.6057 -0.5312 0.5925
vn -0.4438 -0.3256 0.8349
vn -0.6571 0.3338 0.6759
vn -0.6910 0.5050 0.5172
vn 0.2755 0.9606 0.0368
vn -0.5190 0.6281 0.5797
vn 0.2008 0.7884 0.5815
vn 0.1202 0.8588 -0.4980
vn 0.7930 -0.5809 0.1834
vn 0.0008 -0.9999 0.0160
vn -0.0534 -0.7576 -0.6506
vn -0.8525 -0.4922 0.1760
vn -0.0311 -0.3639 0.9309
vn -0.9807 -0.0401 -0.1914
vn 0.0202 -0.5274 -0.8494
vn 0.9531 0.0093 0.3026
vn -0.9552 0.0349 0.2940
vn 0.6022 0.0567 0.7964
vn 0.6096 0.0370 -0.7919
vn 0.6264 0.6958 -0.3515
vn 0.6284 0.7077 0.3230
vn -0.5060 0.7889 -0.3487
vn -0.5077 0.8018 0.3153
vn -0.6205 0.1071 0.7769
vn 0.6688 -0.5224 -0.5289
vn -0.6267 0.0911 -0.7739
vn -0.6820 -0.5027 -0.5312
vn 0.0697 0.4265 0.9018
vn 0.9494 -0.2727 -0.1557
vn 0.3562 0.8419 -0.4054
vn -0.9110 0.3428 -0.2294
vn -0.8074 0.5670 0.1631
vn 0.2251 0.9647 0.1369
vn 0.5499 0.1905 0.8132
vn 0.8380 -0.2346 0.4927
vn -0.5278 -0.6334 0.5659
vn -0.4633 -0.2351 0.8544
vn 0.9512 0.2243 0.2119
vn 0.9558 0.2225 0.1921
vn 0.9504 0.2450 0.1917
vn 0.5915 -0.4306 0.6817
vn 0.9504 0.2450 0.1916
vn 0.9504 0.2449 0.1917
vn 0.3675 0.1059 0.9240
vn 0.7310 -0.6722 0.1173
vn 0.3087 0.6781 0.6669
vn 0.9504 0.2449 0.1918
vn 0.9504 0.2450 0.1918
vn 0.3187 0.9429 0.0966
vn 0.5243 0.7187 -0.4567
vn 0.6823 0.1652 -0.7121
vn 0.8074 -0.3910 -0.4419
vn 0.9545 0.2457 0.1690
vn 0.9593 0.2231 0.1730
vn 0.9457 0.2442 0.2144
vn 0.9417 0.2434 0.2324
vn 0.9512 0.2164 0.2199
vn 0.9597 0.2056 0.1917
vn 0.9410 0.2641 0.2113
vn 0.9444 0.2673 0.1914
vn 0.9392 0.2853 0.1910
vn 0.9372 0.2714 0.2191
vn 0.9487 0.2655 0.1714
vn 0.9621 0.2178 0.1642
vn 0.9480 0.2734 0.1632
vn 0.9574 0.2462 0.1507
vn 0.9550 0.2488 0.1614
vn 0.9529 0.2569 0.1614
vn 0.1494 0.0671 -0.9865
vn 0.1439 0.0884 -0.9856
vn -0.1601 -0.0234 0.9868
vn -0.1652 -0.0020 0.9863
vn -0.9591 -0.2325 -0.1613
vn -0.9611 -0.2243 -0.1613
vn -0.9551 -0.2484 -0.1614
vn 0.1602 0.0243 -0.9868
vn 0.9591 0.2328 0.1613
vn 0.9611 0.2244 0.1612
vn 0.2462 -0.9692 -0.0063
vn -0.1436 -0.0876 0.9857
vn -0.1494 -0.0660 0.9866
vn 0.1656 0.0024 -0.9862
vn -0.9529 -0.2566 -0.1615
vn -0.2432 0.9700 0.0057
vn -0.9512 0.2243 0.2119
vn -0.9504 0.2450 0.1917
vn -0.9558 0.2225 0.1921
vn -0.5915 -0.4306 0.6817
vn -0.3675 0.1059 0.9240
vn -0.9504 0.2449 0.1916
vn -0.7310 -0.6722 0.1173
vn -0.3087 0.6781 0.6669
vn -0.3187 0.9429 0.0966
vn -0.9504 0.2450 0.1918
vn -0.9504 0.2449 0.1918
vn -0.5243 0.7187 -0.4567
vn -0.6823 0.1652 -0.7121
vn -0.8074 -0.3910 -0.4419
vn -0.9504 0.2449 0.1919
vn -0.9545 0.2457 0.1690
vn -0.9593 0.2231 0.1730
vn -0.9512 0.2164 0.2199
vn -0.9417 0.2434 0.2324
vn -0.9457 0.2442 0.2144
vn -0.9597 0.2056 0.1917
vn -0.9410 0.2641 0.2113
vn -0.9372 0.2714 0.2191
vn -0.9392 0.2853 0.1910
vn -0.9444 0.2673 0.1914
vn -0.9487 0.2655 0.1714
vn -0.9621 0.2178 0.1642
vn -0.9480 0.2734 0.1632
vn -0.9574 0.2462 0.1507
vn -0.9550 0.2488 0.1614
vn -0.9529 0.2569 0.1614
vn -0.1494 0.0671 -0.9865
vn -0.1439 0.0884 -0.9856
vn 0.1601 -0.0234 0.9868
vn 0.1652 -0.0020 0.9863
vn 0.9591 -0.2325 -0.1613
vn 0.9611 -0.2243 -0.1613
vn 0.9551 -0.2484 -0.1614
vn -0.1602 0.0243 -0.9868
vn -0.9591 0.2328 0.1613
vn -0.9611 0.2244 0.1612
vn -0.2462 -0.9692 -0.0063
vn 0.1436 -0.0876 0.9857
vn 0.1494 -0.0660 0.9866
vn -0.1656 0.0024 -0.9862
vn 0.9529 -0.2566 -0.1615
vn 0.2432 0.9700 0.0057
usemtl M_Frog
s 1
f 34/1/1 1/2/2 9/3/3 36/4/4
f 5/5/5 3/6/6 62/7/7 65/8/8
f 46/9/9 2/10/10 61/11/11 112/12/12
f 113/13/13 62/7/7 3/6/6 47/14/14
f 47/14/14 3/6/6 5/5/5 48/15/15
f 48/15/15 5/5/5 2/10/10 46/9/9
f 2/10/10 5/5/5 65/8/8 61/11/11
f 4/16/16 8/17/17 7/18/18 33/19/19
f 71/20/20 69/21/21 7/18/18 8/17/17
f 68/22/22 71/20/20 8/17/17 6/23/23
f 34/1/1 6/23/23 8/17/17 4/16/16
f 33/19/19 7/18/18 69/21/21 96/24/24
f 35/25/25 12/26/26 11/27/27 36/4/4
f 68/22/22 6/23/23 11/27/27 12/26/26
f 58/28/28 10/29/29 9/3/3 1/2/2
f 37/30/30 39/31/31 45/32/32
f 39/31/31 38/33/33 45/32/32
f 45/32/32 38/33/33 40/34/34
f 37/30/30 45/32/32 40/34/34
f 38/33/33 39/31/31 41/35/35 44/36/36
f 20/37/37 29/38/38 28/39/39 21/40/40
f 19/41/41 17/42/42 16/43/43 18/44/44
f 16/43/43 17/42/42 14/45/45 13/46/46
f 14/45/45 17/42/42 19/41/41 15/47/47
f 28/39/39 19/41/41 18/44/44 26/48/48
f 101/49/49 68/22/22 12/26/26 35/25/25
f 31/50/50 32/51/51 25/52/52 27/53/53
f 15/47/47 29/38/38 24/54/54 30/55/55
f 22/56/56 27/53/53 25/52/52 23/57/57
f 20/37/37 21/40/40 22/56/56 23/57/57
f 20/37/37 23/57/57 25/52/52 29/38/38
f 28/39/39 27/53/53 22/56/56 21/40/40
f 24/54/54 26/48/48 18/44/44 30/55/55
f 29/38/38 15/47/47 19/41/41 28/39/39
f 31/50/50 27/53/53 28/39/39 26/48/48
f 32/51/51 24/54/54 29/38/38 25/52/52
f 24/54/54 32/51/51 31/50/50 26/48/48
f 40/34/34 38/33/33 44/36/36 43/58/58
f 39/31/31 37/30/30 42/59/59 41/35/35
f 37/30/30 40/34/34 43/58/58 42/59/59
f 30/55/55 18/44/44 16/43/43 13/46/46
f 58/28/28 101/49/49 35/25/25 10/29/29
f 10/29/29 35/25/25 36/4/4 9/3/3
f 1/2/2 34/1/1 4/16/16
f 6/23/23 34/1/1 36/4/4 11/27/27
f 15/47/47 30/55/55 13/46/46 14/45/45
f 58/28/28 1/2/2 46/9/9 112/12/12
f 33/19/19 96/24/24 113/13/13 47/14/14
f 4/16/16 33/19/19 47/14/14 48/15/15
f 1/2/2 4/16/16 48/15/15 46/9/9
f 54/60/60 50/61/61 49/62/62 53/63/63
f 51/64/64 50/61/61 54/60/60 55/65/65
f 49/62/62 52/66/66 56/67/67 53/63/63
f 56/67/67 52/66/66 51/64/64 55/65/65
f 50/61/61 51/64/64 52/66/66 49/62/62
f 98/68/68 100/69/69 72/70/70 57/71/71
f 64/72/72 65/8/8 62/7/7 60/73/73
f 111/74/74 112/12/12 61/11/11 59/75/75
f 113/13/13 114/76/76 60/73/73 62/7/7
f 114/76/76 115/77/77 64/72/72 60/73/73
f 115/77/77 111/74/74 59/75/75 64/72/72
f 59/75/75 61/11/11 65/8/8 64/72/72
f 63/78/78 97/79/79 67/80/80 70/81/81
f 71/20/20 70/81/81 67/80/80 69/21/21
f 68/22/22 66/82/82 70/81/81 71/20/20
f 98/68/68 63/78/78 70/81/81 66/82/82
f 97/79/79 96/24/24 69/21/21 67/80/80
f 99/83/83 100/69/69 74/84/84 75/85/85
f 68/22/22 75/85/85 74/84/84 66/82/82
f 58/28/28 57/71/71 72/70/70 73/86/86
f 102/87/87 110/88/88 104/89/89
f 104/89/89 110/88/88 103/90/90
f 110/88/88 105/91/91 103/90/90
f 102/87/87 105/91/91 110/88/88
f 103/90/90 109/92/92 106/93/93 104/89/89
f 83/94/40 84/95/37 91/96/94 92/97/95
f 82/98/96 81/99/97 79/100/98 80/101/99
f 79/100/98 76/102/100 77/103/101 80/101/99
f 77/103/101 78/104/102 82/98/96 80/101/99
f 91/96/94 89/105/103 81/99/97 82/98/96
f 101/49/49 99/83/83 75/85/85 68/22/22
f 94/106/51 90/107/52 88/108/53 95/109/50
f 78/104/102 93/110/104 87/111/105 92/97/95
f 85/112/57 86/113/56 88/108/53 90/107/52
f 83/94/40 86/113/56 85/112/57 84/95/37
f 83/94/40 92/97/95 88/108/53 86/113/56
f 91/96/94 84/95/37 85/112/57 90/107/52
f 87/111/105 93/110/104 81/99/97 89/105/103
f 92/97/95 91/96/94 82/98/96 78/104/102
f 94/106/51 89/105/103 91/96/94 90/107/52
f 95/109/50 88/108/53 92/97/95 87/111/105
f 87/111/105 89/105/103 94/106/51 95/109/50
f 105/91/91 108/114/106 109/92/92 103/90/90
f 104/89/89 106/93/93 107/115/107 102/87/87
f 102/87/87 107/115/107 108/114/106 105/91/91
f 93/110/104 76/102/100 79/100/98 81/99/97
f 58/28/28 73/86/86 99/83/83 101/49/49
f 73/86/86 72/70/70 100/69/69 99/83/83
f 57/71/71 63/78/78 98/68/68
f 66/82/82 74/84/84 100/69/69 98/68/68
f 78/104/102 77/103/101 76/102/100 93/110/104
f 58/28/28 112/12/12 111/74/74 57/71/71
f 97/79/79 114/76/76 113/13/13 96/24/24
f 63/78/78 115/77/77 114/76/76 97/79/79
f 57/71/71 111/74/74 115/77/77 63/78/78
f 121/116/108 120/117/109 116/118/110 117/119/111
f 118/120/112 122/121/113 121/116/108 117/119/111
f 116/118/110 120/117/109 123/122/114 119/123/115
f 123/122/114 122/121/113 118/120/112 119/123/115
f 117/119/111 116/118/110 119/123/115 118/120/112
f 152/124/116 151/125/117 128/126/118
f 144/127/119 148/128/120 140/129/121 136/130/122
f 141/131/118 148/128/120 144/127/119 137/132/123
f 143/133/124 147/134/125 139/135/126 135/136/127
f 140/129/121 147/134/125 143/133/124 136/130/122
f 142/137/128 146/138/118 138/139/125 134/140/129
f 139/135/126 146/138/118 142/137/128 135/136/127
f 145/141/130 149/142/126 141/131/118 137/132/123
f 157/143/126 139/135/126 147/134/125 140/129/121
f 133/144/131 128/126/118 150/145/132
f 152/124/116 153/146/133 126/147/134 131/148/135
f 152/124/116 131/148/135 127/149/136 151/125/117
f 154/150/137 155/151/138 125/152/139 130/153/140
f 156/154/141 128/126/118 133/144/131
f 151/125/117 127/149/136 132/155/142
f 154/150/137 128/126/118 155/151/138
f 128/126/118 154/150/137 153/146/133
f 129/156/143 156/154/141 133/144/131 124/157/144
f 156/154/141 129/156/143 125/152/139 155/151/138
f 138/139/125 146/138/118 139/135/126 157/143/126
f 149/142/126 138/139/125 157/143/126 141/131/118
f 141/131/118 157/143/126 140/129/121 148/128/120
f 150/145/132 128/126/118 151/125/117
f 134/140/129 138/139/125 149/142/126 145/141/130
f 170/158/145 165/159/146 163/160/146 172/161/145
f 168/162/147 161/163/148 165/159/148 170/158/147
f 172/161/149 163/160/150 159/164/150 167/165/149
f 167/165/151 159/164/152 161/163/152 168/162/151
f 166/166/153 167/165/151 168/162/151 169/167/153
f 168/162/147 170/158/147 171/168/154 169/167/154
f 170/158/145 172/161/145 173/169/155 171/168/155
f 164/170/156 171/168/155 173/169/155 162/171/156
f 164/170/157 162/171/157 158/172/157 160/173/157
f 162/171/158 173/169/159 166/166/159 158/172/158
f 172/161/149 167/165/149 166/166/159 173/169/159
f 160/173/160 169/167/154 171/168/154 164/170/160
f 158/172/161 166/166/153 169/167/153 160/173/161
f 155/151/138 128/126/118 156/154/141
f 154/150/137 130/153/140 126/147/134 153/146/133
f 133/144/131 150/145/132 132/155/142 124/157/144
f 128/126/118 153/146/133 152/124/116
f 161/163/162 159/164/162 163/160/162 165/159/162
f 150/145/132 151/125/117 132/155/142
f 202/174/163 178/175/164 201/176/165
f 194/177/166 186/178/167 190/179/164 198/180/168
f 191/181/164 187/182/169 194/177/166 198/180/168
f 193/183/170 185/184/171 189/185/172 197/186/173
f 190/179/164 186/178/167 193/183/170 197/186/173
f 192/187/174 184/188/175 188/189/173 196/190/164
f 189/185/172 185/184/171 192/187/174 196/190/164
f 195/191/176 187/182/169 191/181/164 199/192/177
f 207/193/172 190/179/164 197/186/173 189/185/172
f 183/194/178 200/195/179 178/175/164
f 202/174/163 181/196/180 176/197/181 203/198/182
f 202/174/163 201/176/165 177/199/183 181/196/180
f 204/200/184 180/201/185 175/202/186 205/203/187
f 206/204/188 183/194/178 178/175/164
f 201/176/165 182/205/189 177/199/183
f 204/200/184 205/203/187 178/175/164
f 178/175/164 203/198/182 204/200/184
f 179/206/190 174/207/191 183/194/178 206/204/188
f 206/204/188 205/203/187 175/202/186 179/206/190
f 188/189/173 207/193/172 189/185/172 196/190/164
f 199/192/177 191/181/164 207/193/172 188/189/173
f 191/181/164 198/180/168 190/179/164 207/193/172
f 200/195/179 201/176/165 178/175/164
f 184/188/175 195/191/176 199/192/177 188/189/173
f 220/208/192 222/209/192 213/210/193 215/211/193
f 218/212/194 220/208/194 215/211/195 211/213/195
f 222/209/196 217/214/196 209/215/197 213/210/197
f 217/214/198 218/212/198 211/213/199 209/215/199
f 216/216/200 219/217/200 218/212/198 217/214/198
f 218/212/194 219/217/201 221/218/201 220/208/194
f 220/208/192 221/218/202 223/219/202 222/209/192
f 214/220/203 212/221/203 223/219/202 221/218/202
f 214/220/204 210/222/204 208/223/204 212/221/204
f 212/221/205 208/223/205 216/216/206 223/219/206
f 222/209/196 223/219/206 216/216/206 217/214/196
f 210/222/207 214/220/207 221/218/201 219/217/201
f 208/223/208 210/222/208 219/217/200 216/216/200
f 205/203/187 206/204/188 178/175/164
f 204/200/184 203/198/182 176/197/181 180/201/185
f 183/194/178 174/207/191 182/205/189 200/195/179
f 178/175/164 202/174/163 203/198/182
f 211/213/209 215/211/209 213/210/209 209/215/209
f 200/195/179 182/205/189 201/176/165
